<?xml version="1.0" encoding="UTF-8"?><svg id="Layer_2" xmlns="http://www.w3.org/2000/svg" viewBox="0 0 7564.7 1699.79"><g id="FULL"><path d="M1019.82,1.21c13.05,1.98,48.63,8.97,69.93,23.38,9.22,6.24,19.71,11.25,27.06,19.39,11.55,12.79,25.7,15.13,40.36,11.2,29.97-8.05,60.35-10.44,90.93-8.43,92.52,6.08,183.47,54.19,216.87,160.12,6.92,21.96,8.02,44.91,10.25,67.48,1.43,14.46,7.91,24.04,18.5,31.54,51.6,36.53,80.14,86.85,90.17,148.51,2.26,13.87,9.11,23.93,22.6,29.78,67.82,29.42,100.83,85.26,115.33,154.38,2.91,13.87,3.1,28.42,3.49,42.68.73,26.13,1.47,52.26,2.51,78.39,1.53,38.64-1.37,77.82-13.05,114.37-8.58,26.86-3.61,49.94,2.28,75.07,13.38,57.12,17.18,114.06-10.3,168.9-22.07,44.03-53.53,78.65-99.68,98.02-14.02,5.88-21.28,14.77-23.49,30.22-8.66,60.4-36.87,109.93-87.09,145.23-20.14,14.16-22.03,34.18-23.4,54.92-2.94,44.61-17.75,84.59-45.83,119.28-34.33,42.41-79.18,68.47-131.65,81.96-21.22,5.46-42.95,6.79-64.75,6.54-26.08-.3-52.14.32-77.37-9.14-11.64-4.37-22.95-.3-32.5,8.25-35.57,31.84-76.93,45.13-125.02,44.61-45.63-.49-84.05-15.8-118.48-43.7-10.89-8.83-20.06-6.94-29.61,1.03-20.49,17.1-43.55,29.25-69.35,36.12-57.21,15.23-111.67,12.11-158.89-27.56-20.57-17.29-40.98-22.38-67.14-14.6-23.94,7.11-49.45,4.94-74.46,4.73-52.86-.46-100.5-18.06-140.62-50.37-43.71-35.2-74.52-80.25-81.44-138.69-1.24-10.48-3.54-20.77-2.41-31.3,2.7-25.04-15.64-36.87-31.82-48.95-31.67-23.62-52.99-54.35-66.73-90.77-6.67-17.68-10.04-36.22-12.9-54.86-1.85-12.03-11.64-18.03-21.15-21.72-21.78-8.45-41.24-21.16-56.82-37.3-28.2-29.22-49.26-63.46-57.47-104.33-4.97-24.75-8.18-49.99-5.98-74.79,1.85-20.85,3.22-42.51,11.33-62.43,9.07-22.28,8.5-43.57,1.16-66.86-11.94-37.9-11.42-77.77-9.67-117.1,1.31-29.56-5.25-58.64-2.9-88.16,3.35-42.1,12.56-82.29,37.61-117.25,20.42-28.51,47.02-50.22,79.36-63.46,17.89-7.33,25.53-20.52,27.33-37.32,5.93-55.55,35.79-97.57,75.68-133.12,14.1-12.56,31.7-21.29,32.52-42.75.46-12.11,1.65-23.99,2.99-36.02,4.6-41.48,22.62-76.3,49.22-107.45,35.97-42.11,81.61-67.75,135.75-77.86,40.07-7.49,80.65-6.47,120.03,2.85,21.36,5.05,38.3.1,52.65-12.72,22.76-20.34,49.37-30.64,78.27-37.08,2.71-.6,12.42-2.24,16.48-2.5,8.93-.67,15.75-1.28,27.95.28,6.72.62,8.25,1.3,11.49,1.68,36.66,4.27,68.1,16.07,97.08,39.46,16.19,13.07,20.54,13.44,37.32.6,21.71-16.6,45.6-28.48,71.88-35.92,10.52-2.98,20.84-4.97,31.83-6.62,11.46-1.65,22.03-1.16,33.76.17ZM1338.01,361.28l.05.18c28.12-10.92,44.1-32.53,51.47-60.66,13.47-51.41-12.85-112.57-59.89-144.15-46.46-31.19-97.72-33.54-149.15-21.8-39.03,8.91-74.91,27.54-99.83,61.58l.08.09c-2.62.39-4.13,1.94-4.7,4.47-10.82,10.47-17.85,23.58-25.73,36.17-39.99,63.95-32.25,153.05,30.16,215.49,10.8,10.81,20.94,7.57,31.5-.02,10.31-7.41,11.27-15.17,3.89-25.99-12.38-18.17-12.19-38.98-1.24-53.08,10.47-13.48,28.18-18.17,48.96-11.43,26.48,8.59,53.61,13.7,81.17,16.17,30.93,2.77,61.46,1.16,89.55-14.48,1.23-.85,2.46-1.69,3.69-2.54ZM407.26,370.83c26.58,10.03,54.07,10.14,81.68,6.82,26.94-3.23,53.41-8.52,79.53-16.47,28.31-8.61,52.57,8.65,53.43,35.96.35,11.09-3.24,21.16-9.69,30.16-7.85,10.96-3.35,19.32,5.86,26.22,10.81,8.11,22.71,6.57,32.78-4.69,14.37-16.08,28.18-32.98,36.46-52.95,19.58-47.21,21.89-94.94.33-142.48-34.46-83.4-124.92-136.6-213.77-125.74-71.04,8.69-121.84,52.67-136.48,118.17-13.21,59.08,16,111.32,69.89,124.98ZM1036.25,117.66c14.32-12.62,14.53-19.36.49-25.97-45.4-21.39-124.79,5.63-130.73,72.99-.82,9.26-2.67,18.12-5.56,26.85-10.63,15.1-24.12,24.92-43.6,21.29-18.62-3.47-26.03-17.49-29.99-34.21-.23-.96-.88-1.82-1.33-2.72-4.79-71.54-67.69-103.85-126.23-89.26-20.57,5.13-23.59,16.22-8.97,30.7,4.08,4.55,8.15,9.11,12.24,13.65,40.09,44.51,72.86,92.88,78.67,154.65,5.63,59.81,1,117.81-32.72,170.26-11.13,17.31-23.58,33.52-36.89,49.17-13.21,15.53-13.58,20.54-1.82,36.3,32.67,43.77,54.54,92.43,67.28,145.39,5.1,21.21,10.42,23.97,31.54,16.89,37.46-12.55,75.08-15.21,113.3-3.31,22.47,7,27.06,4.6,32.74-17.93,11.39-45.13,29.03-87.42,55.46-125.86q22.28-32.4-2.52-62.1c-64.52-77.5-78.65-165.24-48.37-259.59,14.54-45.3,42.91-83.64,77-117.2ZM591.85,1549.67c66.72-37.55,107.77-92.08,110.21-170.64.89-28.82-5.08-56.58-19.96-82.5-14.22-24.78-31.38-46.74-51.63-66.61-7.32-7.18-14.94-14.21-21.2-22.27-13.49-17.35-12-40.35,2.65-54.57,15.13-14.68,39-15.13,55.81-.48,19.35,16.87,37.14,35.27,54.31,54.43,78.07,87.1,82.22,231.61,13.75,322.15-14.58,19.28-29.44,38.07-47.23,54.6-12.72,11.83-10.58,22.22,5.54,27.46,63.3,20.59,132.53-21.25,129.55-88.6-.82-18.4-1.91-36.96,1.25-55.29,3.69-21.4,20.09-35.28,40.38-34.77,19.65.5,34.99,14.71,38.13,35.51,2.46,16.33,2.34,32.87,1.05,49.16-5.47,68.84,58.28,111.58,124.45,96.12,7.51-1.75,15.43-4.61,17.73-13.08,2.38-8.77-4.1-14.28-9.73-19.5-13.6-12.6-25.49-26.61-36.82-41.29-56.69-73.43-68.69-155.6-43.94-242.81,16.77-59.11,57.45-103.4,102.86-142.98,18.57-16.18,43.7-15.39,58.38.14,15.58,16.47,14.59,40.36-2.86,59.44-14.54,15.91-29.85,31.12-44.13,47.26-74.46,84.16-50.59,204.2,38.78,270.46,57.27,43.79,121.03,51.28,187.62,28.86,46.35-15.6,77.72-48.87,91.11-96.96,16.77-60.24-6.41-109.77-59.84-128.85-29.3-14.47-60.45-14.09-91.79-10.92-26.07,2.64-51.32,9.41-76.67,15.85-32.3,8.2-56.14-10.73-53.48-41.82,1.47-17.16,11.82-27.85,26.98-34.36,26.64-11.44,54.91-16.06,83.41-19.95,71.07-9.72,138-.59,197.77,42.26,8.21,8.38,16.52,16.66,24.61,25.16,8.32,8.74,16.47,9.04,25.07.4,16.55-16.62,28.56-35.96,35.35-58.44,4-13.26-.72-21.86-14.03-25.79-11.25-3.32-22.47-6.7-33.71-10.06-19.35-10.77-37.31-23.37-52.16-40-7.51-8.42-16.84-10.36-27.85-9.47-27.67,2.23-55.26,1.81-82.95-1.85-184.72-24.44-323.65-166.88-342.41-351.89-1.41-13.92-7.45-23.74-19.56-30.96-36.96-22.02-90.67-19.95-125.5,5.35-11.11,8.07-16.73,19.16-18.17,32.53-.66,6.12-.46,12.35-1.43,18.41-33.16,207.53-223.63,345.41-423.58,327.85-10.53-.93-19.39.92-26.84,8.16-14.41,14-30.85,25.23-47.77,35.85-13.35,5.17-26.52,10.89-40.1,15.36-13.13,4.33-18.27,12.7-15.28,25.78,5.53,24.24,18.28,44.39,36.55,60.99,8.05,7.31,16.59,7.16,24.57-.74,8.39-8.3,16.82-16.55,25.23-24.83,37.09-28.86,79.21-44.13,126.07-46.85,54.45-3.16,107.18,4.79,158.17,24.09,10.75,4.07,17.59,12,20.94,22.99,4.86,15.93,2.81,30.96-8.81,42.92-12.28,12.63-28.26,13.89-44.37,8.95-25.06-7.68-50.51-13.7-76.53-16.05-38.6-3.48-76.85-3.05-110.79,20.05-18.17,9.36-30.26,24.12-37.14,43.05-14,38.52-9.95,75.48,11,110.53,45.63,76.36,157.95,101.24,238.95,53.05ZM1643.25,775.6c1.21-177.86-150.31-307.58-303.57-306.03-173.84,1.76-310.38,136.76-310.44,311.04-.05,152.37,131.22,302.55,309.48,300.53,167.57-1.9,304.51-137.75,304.53-305.55ZM89.32,775.84c-7.03,153.74,126.82,307.43,310,305.76,171.62-1.56,302.14-152.11,302.13-306.52-.01-160.57-139.39-311.94-315.55-307.51-151.3,3.81-305.17,139.47-296.58,308.26ZM196.33,1149.36c2.29-.15,7.5.01,12.5-.95,6.39-1.23,14.18-1.71,15.71-9.92,1.5-8.08-5.01-11.55-10.83-15.01-10.57-6.29-21.28-12.36-31.64-18.98-26.05-16.63-49.79-36.12-71.43-58.22-4.11-4.2-8.97-9.92-15.83-6.38-6.51,3.35-5.47,10.4-5.29,16.54.07,2.55.36,5.12.87,7.62,9.98,49.3,52.7,84.61,105.95,85.29ZM1533.27,1148.8c51.94-.51,94.89-37.7,104-89.75.95-5.42,1.52-10.56-3.2-13.91-5.2-3.69-9.79-.11-13.78,3.17-3.55,2.92-6.86,6.17-10.07,9.49-24.84,25.67-53.71,45.8-84.96,62.87-7.93,4.33-22.12,6.23-18.79,18.34,3.18,11.57,17.25,7.64,26.79,9.8Z" style="fill:#1d1a1a;"/><path d="M1109.2,1531.01c-89.37-66.25-113.24-186.3-38.78-270.46,14.28-16.14,29.59-31.35,44.13-47.26,17.44-19.08,18.43-42.96,2.86-59.44-14.69-15.53-39.81-16.32-58.38-.14-45.41,39.58-86.09,83.87-102.86,142.98-24.75,87.21-12.75,169.39,43.94,242.81,11.33,14.68,23.22,28.69,36.82,41.29,5.63,5.22,12.11,10.73,9.73,19.5-2.3,8.47-10.23,11.33-17.73,13.08-66.17,15.45-129.92-27.29-124.45-96.12,1.29-16.29,1.41-32.83-1.05-49.16-3.14-20.8-18.48-35.01-38.13-35.51-20.29-.51-36.69,13.36-40.38,34.77-3.16,18.32-2.06,36.89-1.25,55.29,2.99,67.36-66.25,109.19-129.55,88.6-16.12-5.24-18.26-15.63-5.54-27.46,17.78-16.54,32.65-35.33,47.23-54.6,68.46-90.54,64.32-235.05-13.75-322.15-17.17-19.16-34.96-37.56-54.31-54.43-16.81-14.66-40.68-14.21-55.81.48-14.66,14.23-16.14,37.22-2.65,54.57,6.26,8.05,13.89,15.09,21.2,22.27,20.25,19.87,37.4,41.84,51.63,66.61,14.88,25.93,20.86,53.68,19.96,82.5-2.44,78.56-43.49,133.1-110.21,170.65-.11-8.21-.3-16.42-.28-24.62.01-5.98-.88-9.55-8.75-8.26-23.43,3.84-46.98,3.06-70.25-1.34-42.86-8.12-81.64-25.09-110.38-58.88-28.15-33.09-35.65-71.57-23.15-113.53,33.94-23.11,72.2-23.54,110.79-20.05,26.03,2.35,51.47,8.37,76.53,16.05,16.11,4.94,32.09,3.68,44.37-8.95,11.63-11.96,13.67-26.99,8.81-42.92-3.35-10.99-10.19-18.92-20.94-22.99-50.99-19.3-103.72-27.25-158.17-24.09-46.86,2.72-88.97,17.99-126.07,46.85-13.36-24.3-25.33-49.16-30.97-76.58,16.93-10.62,33.36-21.85,47.77-35.85,7.45-7.24,16.3-9.08,26.84-8.16,199.95,17.56,390.42-120.32,423.58-327.85.97-6.06.77-12.29,1.43-18.41,1.44-13.38,7.05-24.46,18.17-32.53,34.83-25.3,88.54-27.37,125.5-5.35,12.11,7.21,18.14,17.04,19.56,30.96,18.76,185.01,157.69,327.44,342.41,351.89,27.69,3.66,55.27,4.08,82.95,1.85,11.01-.89,20.34,1.06,27.85,9.47,14.85,16.64,32.81,29.23,52.16,40-1.27,5.44-2.08,11.04-3.89,16.3-6.92,20.11-13.93,40.27-33.41,52.43-59.77-42.85-126.7-51.99-197.77-42.26-28.5,3.9-56.77,8.51-83.41,19.95-15.16,6.51-25.52,17.2-26.98,34.36-2.65,31.08,21.18,50.02,53.48,41.82,25.35-6.44,50.6-13.21,76.67-15.85,31.34-3.17,62.49-3.55,91.79,10.92-3.42,4.29-8.53,2.72-12.88,3.54-10.2,1.92-16,3.9-9.89,17.15,6.76,14.68,9.42,31.26,6.44,47.85-6.97,38.8-27.9,68.45-60.46,89.99-37.3,24.68-78.95,34.63-123.24,35.37-6.3.11-13.39-2.9-18.84,3.06Z" style="fill:#e7879c;"/><path d="M1643.25,775.6c-.02,167.79-136.96,303.64-304.53,305.55-178.26,2.03-309.53-148.16-309.48-300.53.06-174.28,136.6-309.28,310.44-311.04,153.26-1.55,304.78,128.17,303.57,306.03ZM1352.72,684.68c.46-25.86-2.61-30.55-21.07-27.75-50.06,7.58-100.86,34.75-112.24,106.49-11.01,69.33,35,131.58,106.09,142.01,57.12,8.38,127.09-27.72,138.75-103.19,4.17-27.01,3.16-30.11-23.6-27.79-46.24,4.02-94.27-38.9-87.92-89.77Z" style="fill:#fdfdfd;"/><path d="M89.32,775.84c-8.6-168.79,145.28-304.46,296.58-308.26,176.16-4.43,315.54,146.95,315.55,307.51.01,154.4-130.5,304.95-302.13,306.52-183.18,1.67-317.03-152.03-310-305.76ZM491.01,774.36c-8.1-1.35-17.28-.29-26.34-3.39-39.82-13.65-64.21-52.04-59.38-94.47,1.99-17.46.07-19.71-17.44-19.99-3.57-.06-7.19.1-10.72.63-79.35,11.9-124.32,90.09-102.69,161.38,16.31,53.74,70.78,93.36,126.53,90.22,57.86-3.27,107.07-45.77,117.29-101.28,5.64-30.67,4.14-32.55-27.25-33.09Z" style="fill:#fdfdfd;"/><path d="M825.54,175.89c.45.9,1.11,1.76,1.33,2.72,3.95,16.72,11.37,30.74,29.99,34.21,19.48,3.63,32.97-6.19,43.6-21.29,13.38-3.35,22.54-10.51,25.65-24.94,2.78-12.9,12.76-20.38,23.67-26.54,26.83-15.15,56.54-19.19,86.47-22.4-34.09,33.55-62.46,71.89-77,117.2-30.28,94.35-16.15,182.09,48.37,259.59q24.83,29.82,2.52,62.1c-26.43,38.43-44.07,80.73-55.46,125.86-5.68,22.53-10.28,24.92-32.74,17.93-38.22-11.9-75.85-9.24-113.3,3.31-21.12,7.07-26.44,4.32-31.54-16.89-12.74-52.96-34.61-101.62-67.28-145.39-11.76-15.76-11.39-20.77,1.82-36.3,13.31-15.65,25.76-31.85,36.89-49.17,33.72-52.45,38.35-110.45,32.72-170.26-5.81-61.76-38.58-110.14-78.67-154.65-4.09-4.54-8.16-9.1-12.24-13.65,51.64,4.37,101.06,13.87,135.21,58.56Z" style="fill:#e7879c;"/><path d="M1334.32,363.81c-28.09,15.64-58.62,17.25-89.55,14.48-27.56-2.47-54.7-7.58-81.17-16.17-20.78-6.74-38.49-2.05-48.96,11.43-10.95,14.1-11.14,34.91,1.24,53.08,7.38,10.83,6.42,18.58-3.89,25.99-10.56,7.59-20.7,10.83-31.5.02-62.41-62.44-70.16-151.54-30.16-215.49,7.87-12.59,14.91-25.7,25.73-36.17,2.55-.46,4.97-1.05,4.7-4.47,0,0-.08-.09-.07-.08,2,0,4.38.7,5.92-.13,36.44-19.85,75.76-21.65,116.15-20.8,74.85,1.57,140.28,67.25,141.14,142.28.17,15.13-6.09,28.86-5.82,43.68,0,0-.05-.18-.06-.18-1.23.85-2.46,1.69-3.69,2.54Z" style="fill:#e7879c;"/><path d="M687.62,253.41c21.57,47.54,19.25,95.27-.33,142.48-8.28,19.96-22.09,36.86-36.46,52.95-10.06,11.26-21.97,12.8-32.78,4.69-9.2-6.9-13.71-15.27-5.86-26.22,6.45-9,10.04-19.06,9.69-30.16-.86-27.31-25.12-44.58-53.43-35.96-26.12,7.95-52.59,13.23-79.53,16.47-27.61,3.31-55.11,3.21-81.68-6.82.61-25.75,4.7-50.88,16.15-74.11,22.27-45.19,62.06-66.6,108.22-80.95,48.41-15.05,91.37-7.81,130.9,23.48,7.5,5.94,14.98,12.57,25.1,14.17Z" style="fill:#e7879c;"/><path d="M687.62,253.41c-10.12-1.61-17.6-8.24-25.1-14.17-39.53-31.29-82.49-38.53-130.9-23.48-46.16,14.35-85.95,35.76-108.22,80.95-11.45,23.23-15.54,48.37-16.15,74.11-53.89-13.66-83.1-65.9-69.88-124.98,14.65-65.5,65.45-109.48,136.48-118.17,88.86-10.87,179.31,42.34,213.77,125.74Z" style="fill:#f2c3cc;"/><path d="M1109.2,1531.01c5.45-5.96,12.55-2.95,18.84-3.06,44.3-.74,85.94-10.69,123.24-35.37,32.56-21.54,53.49-51.19,60.46-89.99,2.98-16.58.32-33.17-6.44-47.85-6.1-13.25-.31-15.22,9.89-17.15,4.34-.82,9.46.75,12.88-3.54,53.42,19.08,76.61,68.61,59.84,128.85-13.39,48.09-44.76,81.36-91.11,96.96-66.59,22.41-130.35,14.93-187.62-28.86Z" style="fill:#d85162;"/><path d="M1338.06,361.45c-.27-14.82,5.99-28.55,5.82-43.68-.86-75.03-66.3-140.71-141.14-142.28-40.38-.84-79.71.96-116.15,20.8-1.54.84-3.92.13-5.92.13,24.91-34.05,60.79-52.68,99.82-61.59,51.43-11.74,102.69-9.39,149.15,21.8,47.04,31.58,73.36,92.74,59.89,144.15-7.37,28.13-23.35,49.74-51.47,60.66Z" style="fill:#d85162;"/><path d="M379.04,1343.04c-12.5,41.96-5,80.43,23.15,113.53,28.74,33.79,67.52,50.76,110.38,58.88,23.27,4.41,46.82,5.18,70.25,1.34,7.87-1.29,8.76,2.28,8.75,8.26-.02,8.21.18,16.42.28,24.62-81,48.18-193.32,23.3-238.95-53.05-20.95-35.06-25-72.01-11-110.53,6.88-18.92,18.97-33.69,37.14-43.05Z" style="fill:#f2c3cc;"/><path d="M196.33,1149.36c-53.25-.68-95.98-35.99-105.95-85.29-.51-2.5-.79-5.08-.87-7.62-.17-6.14-1.21-13.19,5.29-16.54,6.87-3.53,11.72,2.18,15.83,6.38,21.64,22.1,45.37,41.59,71.43,58.22,10.36,6.61,21.07,12.69,31.64,18.98,5.81,3.46,12.33,6.93,10.83,15.01-1.52,8.21-9.31,8.69-15.71,9.92-5,.96-10.21.8-12.5.95Z" style="fill:#eec0c9;"/><path d="M283.39,1210.36c5.64,27.42,17.61,52.28,30.97,76.58-8.41,8.27-16.84,16.53-25.23,24.82-7.98,7.89-16.52,8.04-24.57.74-18.28-16.6-31.02-36.76-36.55-60.99-2.99-13.08,2.14-21.46,15.28-25.78,13.58-4.47,26.75-10.19,40.1-15.36Z" style="fill:#f2c3cc;"/><path d="M1533.27,1148.8c-9.54-2.16-23.62,1.77-26.79-9.8-3.32-12.11,10.86-14.01,18.79-18.34,31.25-17.06,60.13-37.2,84.96-62.87,3.2-3.31,6.51-6.56,10.07-9.49,3.99-3.28,8.58-6.85,13.78-3.17,4.72,3.35,4.15,8.48,3.2,13.91-9.11,52.04-52.07,89.24-104,89.75Z" style="fill:#d85162;"/><path d="M1036.25,117.66c-29.93,3.2-59.64,7.25-86.47,22.4-10.91,6.16-20.89,13.64-23.67,26.54-3.11,14.43-12.27,21.59-25.65,24.94,2.89-8.74,4.74-17.6,5.56-26.85,5.93-67.36,85.33-94.37,130.73-72.99,14.03,6.61,13.83,13.35-.49,25.97Z" style="fill:#d85162;"/><path d="M825.54,175.89c-34.15-44.7-83.57-54.2-135.21-58.56-14.62-14.48-11.59-25.58,8.97-30.7,58.55-14.59,121.44,17.73,126.23,89.26Z" style="fill:#eec0c9;"/><path d="M1414.31,1285.12c19.48-12.16,26.48-32.32,33.41-52.43,1.81-5.26,2.62-10.86,3.89-16.3,11.23,3.36,22.46,6.74,33.71,10.06,13.31,3.93,18.03,12.53,14.03,25.79-6.79,22.49-18.81,41.82-35.35,58.44-8.6,8.64-16.75,8.34-25.07-.4-8.09-8.5-16.39-16.78-24.61-25.16Z" style="fill:#d85162;"/><path d="M1080.75,196.52c.27,3.42-2.15,4.01-4.7,4.47.57-2.53,2.08-4.08,4.7-4.47Z" style="fill:#d85162;"/><path d="M1334.32,363.81c1.23-.85,2.46-1.69,3.69-2.54-1.23.85-2.46,1.69-3.69,2.54Z" style="fill:#d85162;"/><path d="M1352.72,684.68c-6.35,50.87,41.68,93.78,87.92,89.77,26.75-2.32,27.77.78,23.6,27.79-11.65,75.47-81.63,111.57-138.75,103.19-71.09-10.43-117.1-72.68-106.09-142.01,11.39-71.74,62.19-98.91,112.24-106.49,18.46-2.8,21.54,1.89,21.07,27.75Z" style="fill:#1d1b1b;"/><path d="M491.01,774.36c31.39.53,32.89,2.42,27.25,33.09-10.22,55.52-59.43,98.02-117.29,101.28-55.75,3.15-110.22-36.48-126.53-90.22-21.63-71.29,23.34-149.47,102.69-161.38,3.53-.53,7.15-.68,10.72-.63,17.51.28,19.43,2.53,17.44,19.99-4.83,42.43,19.56,80.82,59.38,94.47,9.05,3.1,18.24,2.04,26.34,3.39Z" style="fill:#1d1b1b;"/><path d="M7564.7,904.09c-11.85,22.88-30.89,30.56-56.09,29.03-23.91-1.45-48.04-1.41-71.96-.03-28.62,1.65-49.75-6.19-56.57-37.51-11.18,7.09-21.45,13.47-31.59,20.05-26.62,17.25-55.92,25.44-87.4,29.02-55.13,6.25-107.86-1.93-156.98-26.57-63.55-31.87-99.47-84.95-112.78-154.53-10.29-53.77-3.95-105.59,18.96-154.27,25.09-53.32,68.53-87.88,124.81-105.73,67.46-21.39,134.56-24.3,199.96,7.28,15.4,7.43,29.28,17.99,44.71,27.65v-146.42c-18.2,0-35.85.77-53.41-.19-24.55-1.34-46.34-15.32-44.05-46.15,1.26-16.9,14.5-35.26,31.72-36.11,38.23-1.87,76.63-3.07,114.85-1.6,24.88.96,36.37,16.41,36.97,43.15.73,32.08.84,64.17.86,96.26.09,127.88.04,255.75.04,383.63v18.47c17.37,0,33.63,1.12,49.68-.26,23.73-2.05,37.91,9.84,48.27,28.98v25.87ZM7074.7,718.38c1.17,40.69,12.68,78.79,45.03,107.62,25.98,23.16,56.9,34.38,91.99,38.6,43.87,5.28,83.44-3.08,119.81-26.81,26.32-17.18,48.36-39.68,53.91-71.39,4.4-25.15,4-51.43,3.03-77.1-.53-14.08-4.42-29.06-10.69-41.71-16.67-33.59-44.88-55.44-79.75-68.11-28.19-10.24-57.02-13.86-87.54-9.46-23.7,3.41-46.49,8.28-66.83,20.28-47.98,28.31-67.81,72.54-68.97,128.08Z" style="fill:#1d1a1a;"/><path d="M5669.6,303.42c24.51,10.37,35.24,28.85,34.2,55.31-.87,21.99.5,44.08-.64,66.04-1.67,32.05-32.05,52.72-60.31,42.04-15.56-5.88-27.83-23.85-27.94-40.93q-.23-36.27-36-36.27c-57.09,0-114.2-.74-171.28.39-20.89.41-42.14,1.96-61.52,12.97-30.45,17.29-51.67,58.08-44.88,92.1,7.85,39.31,36.51,67.53,73.26,75.47,3.67.79,7.65.18,11.49.19,72.93.25,145.85.44,218.78.77,20.37.09,38.54,4.66,48.86,24.87,16.42,32.15-9.98,64.26-38,63.82-75.31-1.18-150.65-.36-225.97-.32-.95,0-1.9.25-4.02.54v181.87c17.89,1.42,36.38,1.93,54.57,4.56,22.21,3.21,35.4,23.88,33.52,49.89-1.32,18.37-19.37,35.76-39.44,35.91-61.89.45-123.79.64-185.67-.08-22.91-.26-35.8-17.65-39.4-37.44-4.09-22.48,9.6-43.07,32.38-47.94,17.56-3.75,36.02-3.33,55.49-4.88.26-2.46.95-6.07.96-9.67.07-62.24-.06-124.48.2-186.72.03-7.39-2.33-10.85-8.77-15.26-42.99-29.41-68.91-68.89-75.45-121.99-5.99-48.61,1.99-93.05,29.59-133.05,26.93-39.02,65.73-60.63,112.05-69.38,2.03-.38,3.86-1.85,5.78-2.81,102.72,0,205.45,0,308.17,0Z" style="fill:#1d1a1a;"/><path d="M2578.16,603.13c43.4,24.27,70.81,58.98,82.37,104.81,18.3,72.52-6.74,154.58-77.52,194.34-37.19,20.89-76.75,30.44-118.93,30.47-142.54.12-285.08-.32-427.62.45-20.9.11-40.48-18.69-44.51-38.37-3.75-18.31,9.31-41.87,28.93-46.36,17.88-4.09,36.89-3.37,55.41-4.57,5.68-.37,11.41-.06,18.45-.06.26-5.35.67-9.94.67-14.53.03-138.89-.17-277.78.33-416.66.05-14.07-4.14-18.6-17.91-17.53-13.83,1.08-27.82.28-41.74.23-20.04-.08-42-18.48-44.32-37.05-2.54-20.36,12.65-43.63,32.55-48.88,6.38-1.68,13.21-2.3,19.84-2.32,141.1-.35,282.25-2.8,423.28.16,71.61,1.5,138.78,37.49,160.87,118.7,15.05,55.34,9.54,108.88-29.21,155.17-3.01,3.6-5.38,7.76-8.58,11.17-3.26,3.48-7.17,6.35-12.36,10.83ZM2182.34,843.85c5.13,0,8.89,0,12.66,0,87.3-.02,174.6.08,261.9-.2,14.66-.05,29.55-.5,43.94-3.04,31.55-5.57,58.58-18.95,70.73-51.15,6.47-17.15,7.77-34.85,5.4-53.7-3.63-28.85-16.69-50.53-42.81-61.58-17.77-7.52-37.73-13.49-56.8-13.78-93.03-1.39-186.1-.63-279.16-.63-5.1,0-10.21,0-15.85,0v184.08ZM2182.39,569.7c2.52.46,3.88.93,5.25.94,93.01.05,186.03.55,279.03-.46,13.35-.14,27.66-5.62,39.72-12.03,25.2-13.39,37-37.11,40.55-64.34,3.84-29.47-1.47-65.24-31.77-83.54-21.53-13-45.33-14.79-69.44-14.85-82.46-.18-164.93-.07-247.39-.07-5.12,0-10.23,0-15.93,0v174.34Z" style="fill:#1d1a1a;"/><path d="M3593.11,877.69c-16.18,9.36-30.1,18.03-44.57,25.67-36.76,19.4-75.68,33.91-116.61,40.23-45.94,7.09-91.88,6.08-132.81-21.06-38.43-25.48-60.32-60.89-63.19-107.39-1.93-31.23.64-61.56,18.41-88.55,21.72-32.98,52.9-51.77,91.61-57.95,13.05-2.08,26.42-2.88,39.65-2.94,67.58-.28,135.16-.13,204.06-.13,2.02-29.19-11.75-50.43-33.06-65.33-35.53-24.84-75.96-29.2-118.79-24.55-40.25,4.37-75.72,21.03-112.03,36.23-24.75,10.36-52.57.31-60.15-21.81-6.39-18.66,3.33-39.21,24.95-53.9,27.4-18.62,58.75-27.82,90.41-33.72,31.02-5.78,63.09-9.6,94.53-8.68,57.04,1.67,111.96,14.1,153.53,57.3,29.27,30.42,45.85,68.29,47.05,110.41,1.76,62.01.45,124.1.45,187.99,22.34,0,40.87-.06,59.4.01,22.14.08,40.03,16.66,41.63,36.14,2.32,28.34-18.54,46.59-40.07,46.96-35.49.62-71,.41-106.5.08-19.17-.18-36.11-18.05-37.85-39.08-.35-4.27-.05-8.59-.05-15.93ZM3593.08,740.24h-16.91c-60.96,0-121.92-.31-182.87.27-12.05.11-24.67,1.99-35.92,6.09-10.27,3.74-21.85,9.55-27.99,17.98-23.48,32.26-5.2,83.79,32.62,96.55,36,12.14,70.88,2.38,105.67-5.52,36.16-8.21,67.88-27.01,100.7-43.36,19.97-9.95,29.22-22.87,24.93-45.28-1.5-7.85-.24-16.22-.24-26.72Z" style="fill:#1d1a1a;"/><path d="M4768.11,849.51c21.61,0,38.78-.04,55.95,0,23.45.07,40.6,16.27,42.23,37.06,2.1,26.68-18.56,45.91-41.06,46.13-34.07.33-68.15.3-102.22,0-20.74-.18-37.27-17.75-37.45-40.34-.54-68-1.97-136.02-.5-203.99,1.18-54.48-31.24-92.45-83.44-103.21-67.94-14.01-117.67,11.9-152.71,68.41-5.21,8.41-8.56,19.41-8.71,29.27-.82,54.97-.4,109.95-.4,166.65,18.63,0,36.21-.06,53.8.02,22.63.1,39.68,16.65,41.43,37.9,1.94,23.5-15.64,44.76-39,45.06-67.18.86-134.38.84-201.56-.03-19.94-.26-41.9-16-39.18-47.43,1.69-19.56,19.11-35.41,41.68-35.5,18.17-.07,36.35-.01,55.48-.01v-264.46c-18.74,0-37.3.07-55.86-.02-22.31-.1-39.63-16.24-41.32-35.87-2.69-31.18,19.81-46.61,39.57-47.13,35.97-.95,71.99-.63,107.98-.13,19.88.28,35.5,19.1,36.91,42.93.24,4.12.03,8.26.03,13.08,15.97-13.01,30.21-26.09,45.9-37.09,31.22-21.89,65.91-26.43,103.85-22.88,33.88,3.17,66.54,8.46,96.35,24.6,49.73,26.94,79.18,69.46,81.59,125.69,2.84,66.23.67,132.68.67,201.28Z" style="fill:#1d1a1a;"/><path d="M6872.41,716.73c-2.13,67.54-23.28,126.46-74.53,171.8-32.69,28.92-71.73,46.49-115.12,52.65-22.99,3.26-46.39,5.96-69.53,5.47-60.75-1.27-117.78-16.24-165.58-55.65-30.98-25.54-50.93-59.49-63.39-97.26-9.51-28.83-13.89-58.89-11.82-89.38,5.96-87.81,47.08-161.04,138.13-197.21,40.92-16.26,83.41-21.22,126.59-19.43,51.43,2.13,100.61,14.18,143.67,44.05,44.95,31.18,72.73,74.19,83.74,127.54,3.9,18.87,5.29,38.26,7.83,57.41ZM6460.43,716.75c1.34,11.71,2.33,23.46,4.08,35.11,7.22,48.01,50.98,94.45,97.85,106.51,36.9,9.5,73.81,11.74,110.55,2.31,44.75-11.48,78.36-37.24,97.35-80.73,13.05-29.9,16.46-60.88,10.65-92.25-6.37-34.4-21.27-64.67-50.64-86.47-44.4-32.96-94.79-38.65-146.83-29.99-75.6,12.58-123.71,69.04-123.01,145.52Z" style="fill:#1d1a1a;"/><path d="M5758.94,720.47c-1.28-57.2,13.58-106.74,47.46-148.98,31.74-39.58,74.41-63.75,123.76-75.28,56.8-13.27,114.29-13.56,169.73,3.9,82.26,25.9,135.33,79.89,151.98,167.35,11.95,62.75,2.51,121-29.44,175.48-25.11,42.82-63.35,70.6-109.9,86.78-44.45,15.45-89.95,19.27-137.14,15.21-49.38-4.25-93.55-19.19-133.42-48.21-29.98-21.82-51.33-50.66-65.06-84.21-12.3-30.06-20.24-61.81-17.97-92.04ZM6168.37,717.21c-1.15-59.02-23.32-106.01-79.03-132.03-35.33-16.5-72.82-20.53-111.79-14.76-43.85,6.49-81.23,23.01-106.41,61.04-21.04,31.79-27.68,66.69-23.19,104.47,7.01,58.93,37.46,99.31,93.4,119.42,29.11,10.46,59.01,13.48,90.37,9.21,24.18-3.29,47.31-8.01,68.01-20.63,47.24-28.8,69.13-71.67,68.63-126.72Z" style="fill:#1d1a1a;"/><path d="M2959.43,849.51c27.88,0,53.74-.05,79.6.02,21.83.06,39.88,17.77,41.57,38.33,1.87,22.71-15.69,44.46-39.44,44.68-75.8.69-151.61.62-227.41.02-21.5-.17-39.17-21.07-38.61-42.59.59-22.47,18.51-40.32,40.77-40.44,18.58-.1,37.17-.02,56.43-.02v-264.46c-18.33,0-36.82,0-55.31,0-23.9-.01-41.48-15.24-41.9-36.28-.54-27.28,14.88-46.36,39.59-46.83,35.97-.69,71.97-.47,107.95-.05,16.34.19,31.04,14.38,33.82,31.13,1.36,8.16,2.56,16.34,3.76,24.09,16.8-14.02,32.02-30.3,50.48-41.03,15.61-9.07,34.69-13.17,52.78-16.71,12.94-2.53,26.77-.51,40.21-.49,21.68.04,41.59,15.31,42.86,32.98,2.08,29.05-2.07,43.58-35.95,50.21-18.88,3.69-38.77,3.57-56.95,9.2-42.69,13.21-77.39,36.89-92.15,82.05-.72,2.2-2.01,4.41-2.01,6.62-.11,55.93-.09,111.86-.09,169.57Z" style="fill:#1d1a1a;"/><path d="M3969.77,849.51v-262.03c-17.19,0-33.85.63-50.45-.14-26.55-1.24-41.45-14.77-45.28-39.7-2.75-17.91,12.3-41.64,30.4-42.53,39.63-1.95,79.44-2.72,119.07-1.26,20.91.77,33.2,18.03,33.2,38.81,0,96.23.28,192.46-.3,288.69-.09,14.11,4.59,18.78,18.09,18.05,12.91-.7,25.9.02,38.85.11,21.81.15,39.8,17.82,41.53,38.4,2.18,25.94-20.09,44.48-39.52,44.65-67.64.61-135.29.47-202.94.1-19.75-.11-40.93-22.79-39.15-42.86,1.98-22.42,17.16-40.69,40.78-40.33,18.15.27,36.31.05,55.73.05Z" style="fill:#1d1a1a;"/><path d="M2960.46,1291.82c13.91,18.63,28.21,37.03,41.57,56.09,5.03,7.18,9.76,15.6,11.08,24.01.97,6.21-1.92,15.32-6.45,19.58-7.73,7.27-18.64,5.99-25.43-2.02-9.36-11.03-17.06-23.51-25.02-35.67-7.96-12.16-15.04-24.9-23.11-36.99-11.4-17.09-27.04-21.78-57.23-17.44,0,24.07.25,48.36-.08,72.65-.25,18.33-15.88,28.95-30.51,20.53-4.22-2.43-9.03-8.05-9.27-12.44-1.72-30.51-2.74-61.08-3.13-91.64-.35-27.76.2-55.55.68-83.31.45-25.89,5.65-30.88,31.01-30.88,27.83,0,55.67-.04,83.5,0,45.93.09,74.54,38.35,59.45,81.28-6.34,18.04-22.98,26.84-40.14,33.56-3.3,1.29-6.59,2.58-6.91,2.7ZM2876.06,1205.83c0,19.23-.37,38.14.49,56.98.1,2.26,6.97,6.04,10.65,5.98,18.05-.31,36.17-.85,54.08-2.91,17.75-2.04,28.33-16.32,26.79-33.45-1.39-15.53-13.86-26.43-30.82-26.57-19.65-.16-39.31-.04-61.2-.04Z" style="fill:#1d1a1a;"/><path d="M5449.89,1299.22c0,24.63.85,48.55-.26,72.39-.96,20.73-18.06,31.01-32.15,19.8-5.14-4.09-9.44-12.59-9.52-19.14-.73-58.37-.56-116.76-.33-175.14.06-14.86,9.07-22.82,24.43-22.84,30.69-.04,61.38-.09,92.07,0,33.53.1,56.92,21.35,61.69,55.83,3.66,26.45-16.91,51.75-47.97,59.21-2.69.65-5.15,2.25-8.51,3.78,25.88,19.05,43.59,44.05,56.09,72.74,4.19,9.62,6.86,20.11-5.62,26.91-10.52,5.74-23.58,2.87-30.84-8.22-12.57-19.23-24.64-38.79-36.47-58.48-18.03-30.01-33.78-30.4-62.62-26.83ZM5451.35,1270.22c22.58-1.43,43.45-2.14,64.18-4.25,15.14-1.54,27.15-15.54,27.36-29.59.18-12.23-11.77-29.45-23.4-30.04-22.67-1.16-45.45-.34-68.14-.34v64.23Z" style="fill:#1d1a1a;"/><path d="M4387.93,1298.82c0,25.55.09,49.92-.03,74.28-.08,15.41-5.99,22.09-19.33,22.41-11.21.27-20.74-9.19-20.79-22.15-.24-59.8-.23-119.6-.01-179.4.05-13.29,6.81-19.54,20.59-19.63,33.08-.21,66.16-.36,99.23.03,25.66.3,51.57,21.35,55.63,44.26,5.97,33.78-7.28,57.35-38.05,67.94-5.3,1.82-10.39,4.24-16.5,6.77,25.66,18.35,42.38,42.83,54.84,70.76,5.1,11.44,7.91,21.2-5.7,28.53-11.25,6.06-23.85,2.21-31.51-10.41-8.99-14.83-17.49-29.96-26.51-44.77-4.4-7.22-9.5-14.02-14.29-21-14.04-20.49-34.56-20.36-57.56-17.63ZM4387.93,1205.83c0,17.72.34,33.88-.13,50.02-.27,9.39,3.81,13.25,12.76,12.81,18.02-.88,36.19-.63,54-3.05,18.49-2.52,28.19-15.48,26.56-31.47-1.9-18.66-12.49-28.12-32.08-28.27-19.62-.15-39.25-.03-61.11-.03Z" style="fill:#1d1a1a;"/><path d="M3795,1276.2c-.41,37.96-7.12,68.02-31.69,91.72-25.15,24.26-56.32,30.43-89.27,27.05-31.14-3.19-58.09-16.31-75.22-44.16-25.52-41.48-25.64-109.12,9.75-149.78,16.48-18.93,38.77-28.8,64.88-29.85,28.49-1.15,55.4.59,80.2,17.67,21.41,14.75,31.95,35.29,37.8,59.01,2.69,10.89,2.86,22.41,3.55,28.33ZM3755.21,1283.72c-1.25-.4-2.49-.79-3.74-1.19,1.17-27.63-4.84-52.83-28.99-69.31-30.11-20.55-74.58-10.75-89.19,24.31-13.65,32.77-13.07,64.99,3.65,96.39,10.61,19.93,27.99,27.73,50.43,27.38,22.42-.35,41.91-6.25,51.63-27.59,7.22-15.84,10.93-33.27,16.2-49.99Z" style="fill:#1d1a1a;"/><path d="M6338.48,1292.05v66.16c4.47,0,9.03,0,13.59,0,29.73,0,59.47-.15,89.2.09,10.16.08,18.69,3.23,20.34,15.21,1.81,13.18-6.94,17.5-17.08,17.53-44.02.11-88.03-.74-132.05-1.08-13.21-.1-17.6-8.77-17.67-19.46-.39-57.9-.32-115.81-.09-173.71.06-14.05,9.27-22.47,23.3-22.49,40.28-.06,80.57.13,120.85-.12,11.15-.07,19.02,3.89,19.62,15.46.65,12.68-9.47,15.81-19.18,15.98-33.07.56-66.15.21-100.38.21v57.54c17.61,0,35.63,0,53.65,0,14.39,0,28.79.39,43.16-.12,10.32-.37,13.86,6.09,14,14.03.15,8.67-3.51,15.09-14.54,14.93-32-.44-64-.16-96.71-.16Z" style="fill:#1d1a1a;"/><path d="M5212.33,1205.83v57.53c17.53,0,35.08,0,52.63,0,13.92,0,27.84.08,41.76-.02,9.96-.08,17.09,3.99,16.94,14.45-.14,9.84-5.44,14.74-16.59,14.5-31.13-.68-62.28-.24-94.42-.24v66.16c34.02,0,67.93-.12,101.84.06,13.81.07,22.24,6.66,20.51,17.4-.83,5.14-6.61,9.61-10.55,14.02-1.04,1.17-3.58,1.41-5.43,1.4-44.53-.36-89.05-.79-133.58-1.25-12.43-.13-16.65-8.85-16.72-18.82-.42-58.43-.39-116.86-.07-175.29.07-13.26,9.49-21.41,22.9-21.43,40.32-.06,80.63.15,120.95-.13,11.11-.08,19.32,3.71,19.82,15.23.57,13.21-9.77,16.18-20.35,16.32-28.31.35-56.63.12-84.95.12-4.66,0-9.33,0-14.67,0Z" style="fill:#1d1a1a;"/><path d="M3132.81,1205.83v57.54c31.78,0,63.26.11,94.74-.07,8.32-.05,15.39.89,16.96,10.92,1.83,11.74-3.2,17.72-15.73,17.78-28.31.15-56.62.05-84.93.05-3.28,0-6.55,0-10.73,0v66.16c33.86,0,67.3-.08,100.75.04,14.93.05,23.52,6.43,21.69,17.66-.83,5.08-6.22,10.35-10.9,13.57-3.5,2.42-9.17,2.28-13.88,2.3-36.94.16-73.89.43-110.82-.03-23.75-.3-29.89-6.44-30.02-29.48-.29-52.66-.33-105.33-.04-157.99.14-24.78,5.88-29.99,30.42-30,37.43,0,74.86.14,112.29-.09,11.2-.07,20.49,2.12,20.4,15.5-.09,13.33-10.28,15.92-20.77,16.02-32.6.32-65.2.12-99.42.12Z" style="fill:#1d1a1a;"/><path d="M6617.16,1396.37c-39.88-2.67-71.63-11.16-86.92-48.4-6.81-16.59-2.83-29.71,10.5-33.41,11.76-3.27,16.68,4.96,21.78,12.79,5.63,8.63,9.97,18.43,16.89,25.83,17.79,19.01,60.38,14.24,74.44-7.5,11.17-17.27-.21-38.66-23.52-45-19.87-5.41-39.73-10.95-59.33-17.23-25.74-8.24-40.29-28.13-40.23-53.5.06-25.15,14.73-44.55,40.85-52.96,34.02-10.96,67.43-11,98.28,9.34,12.84,8.46,20.81,21.62,18.59,37.25-.87,6.13-7.85,12.97-13.82,16.39-6.76,3.87-14.13,1.7-18-7.02-2.46-5.53-6.19-10.51-9.42-15.69-15.12-24.2-52.15-20-67.83-9.8-11.99,7.79-12.95,32.97,3.68,38.65,18.13,6.18,36.49,11.71,54.84,17.24,19.03,5.74,38.95,10.7,50.84,28.14,22.94,33.67,10.3,83.29-38.34,98.07-12.04,3.66-24.75,5.12-33.26,6.82Z" style="fill:#1d1a1a;"/><path d="M5006.61,1395.52c-44.84,0-73.09-18.21-84.18-54.27-3.84-12.47.11-21.87,11.62-26.58,12.42-5.08,18,3.31,22.93,12.32,3.39,6.19,6.32,12.62,9.7,18.81,11.68,21.45,32.29,19.39,51.47,17.75,14.82-1.27,28.07-7.35,32.9-24.19,4.35-15.19-3.09-30.27-20.01-35.69-20.02-6.42-41.01-10.18-60.52-17.78-35.57-13.85-48.53-30.99-43.55-68.05,3-22.35,20.2-35.92,40.2-41.65,30.52-8.74,61.97-11.02,91.01,6.67,12.33,7.51,22.05,17.56,25.81,32.29,2.7,10.62-.2,20.03-9.55,24.32-9.24,4.23-17.71,2.03-24.71-8.42-7.49-11.17-17.03-24.03-28.66-28.61-14.61-5.75-32.85-6.67-46.78,6.24-16.49,15.28-13.29,32.66,8.07,40.07,19.43,6.74,39.47,11.71,59.23,17.5,50.35,14.76,65.54,53.32,42.85,94.56-13.98,25.42-40.61,31.94-67.76,34.67-3.32.33-6.71.05-10.06.05Z" style="fill:#1d1a1a;"/><path d="M4148.88,1205.83c0,15.12.58,28.48-.18,41.76-.63,11.12,3.25,15.46,14.66,15.31,26.86-.35,53.74.79,80.59.2,11.27-.25,18.86,4.89,19.02,14.35.16,9.41-7.02,15.15-18.49,14.83-26.85-.73-53.73.1-80.59-.39-11.17-.21-15.59,3.81-15.17,15.09.62,16.6.16,33.25.16,51.22,34.87,0,68.32-.1,101.77.11,5.05.03,11.62-.11,14.79,2.78,4.62,4.21,9.39,11.19,9.18,16.8-.17,4.23-7.72,11.19-12.55,11.71-19.46,2.08-39.14,2.87-58.73,2.75-25.82-.15-51.63-1.78-77.45-2.41-12.52-.3-16.95-8.59-17.03-18.55-.46-59.36-.38-118.73-.11-178.1.06-13.08,6.98-18.92,21.22-18.98,41.26-.15,82.53.31,123.78-.28,11.78-.17,17.75,6.26,18.26,15.51.56,10.09-7.14,16.11-17.63,16.19-27.82.21-55.65.08-83.48.08-6.66,0-13.32,0-22.01,0Z" style="fill:#1d1a1a;"/><path d="M3424.05,1361.08c26.61,3.83,46.76-17.72,53.86-38.62,5.18-15.25,12.21-19.41,25.34-15.85,9.11,2.47,12.25,13.74,9.8,27.23-6.44,35.55-42.54,59.44-78.41,61.55-23.37,1.37-45.94-1.84-66.62-14.25-25.23-15.14-37.97-38.76-43.95-66.01-8.03-36.6-4.29-71.77,17.14-104.01,15.41-23.18,38.08-34.96,64.14-39.33,29.99-5.03,58.34-.08,83.64,19.34,14.14,10.85,21.62,25.1,25.11,41.03,1.21,5.52-5.26,15.06-10.88,18.9-3.82,2.61-13.84.46-18.26-3.08-6.34-5.08-10.55-13.1-14.9-20.32-12.25-20.31-31.18-27.28-53.2-24.34-21.48,2.87-37.2,15.64-45.53,35.88-11.56,28.12-11.54,57.13-2.13,85.55,6.13,18.5,25.66,39.71,54.83,36.32Z" style="fill:#1d1a1a;"/><path d="M6067.04,1284.9c-.55,19.61,3.48,37.38,13.62,55.06,16.01,27.92,78.36,31.37,94.59-4.96,2.48-5.55,4.8-11.18,7.17-16.77,4.77-11.26,14.11-13.52,24.71-11.45,9.82,1.91,9.76,9.97,9.74,17.97-.07,28.59-24.07,58.08-58.27,66.5-40.22,9.91-78.1,5.66-107.77-27.73-15.46-17.41-24.29-38.55-26.31-60.89-3.69-40.66,2.32-79.17,35.58-108.59,44.37-39.25,131.44-30.29,153.6,27.49,3.03,7.9.8,19.3-2.75,27.45-1.39,3.2-14.36,4.52-19.82,1.95-5.9-2.77-10.3-10.55-13.43-17.07-15.99-33.3-58.59-41.83-87.36-17.57-16.15,13.61-21.77,33.52-23.26,54.27-.34,4.76-.05,9.56-.04,14.34Z" style="fill:#1d1a1a;"/><path d="M3942.96,1348.72c11.86-34.61,22.31-65.11,32.77-95.61,7.43-21.67,14.84-43.35,22.35-65,5.2-14.98,13.66-20.48,25.38-16.73,11.43,3.66,17.54,15.53,12.53,29.12-21.49,58.35-43.7,116.43-65.62,174.62-5.32,14.11-15.75,21.25-30.53,20.18-13.88-1.01-22.51-9.2-27.32-22.54-20.92-58.05-42.05-116.03-63.69-173.82-4.48-11.98-1.74-20.99,8.29-26.8,10.69-6.18,23.82-1.18,28.44,11.5,15.37,42.19,29.71,84.75,44.43,127.18,3.96,11.43,7.83,22.89,12.97,37.9Z" style="fill:#1d1a1a;"/><path d="M5737.42,1349.34c5.21-16.17,8.99-28.55,13.18-40.79,13.65-39.9,27.43-79.74,41.2-119.6,5.36-15.52,14.56-21.58,26.42-17.53,10.97,3.75,16.87,16.31,11.95,29.57-21.48,57.94-43.59,115.64-65.33,173.48-5.03,13.39-14.16,20.9-28.64,20.98-14.67.09-23.51-8.31-28.39-21.2-14.75-38.96-29.32-77.99-43.81-117.05-7.32-19.75-14.14-39.68-21.49-59.42-4.17-11.2-.71-20.14,8.84-25.63,10.27-5.9,23.31-1.4,27.67,10.29,13.76,36.85,26.49,74.08,39.49,111.21,6.01,17.17,11.71,34.45,18.9,55.69Z" style="fill:#1d1a1a;"/><path d="M4662.5,1263.44c13.39-21.35,25.3-40.36,37.23-59.36,4.99-7.95,9.66-16.12,15.09-23.76,6.7-9.42,16.14-13.47,26.68-7.57,11.2,6.27,12.08,16.22,5.41,26.73-20.1,31.66-40.42,63.18-60.34,94.95-2.57,4.09-4.54,9.31-4.65,14.06-.49,21.51-.14,43.05-.24,64.57-.06,13.15-8.53,22.46-20.13,22.46-11.55,0-20.01-9.36-20.09-22.52-.11-17.7-1.02-35.47.28-53.07,1.09-14.71-4.09-26.3-11.77-38.01-17.24-26.25-34.13-52.74-50.63-79.46-6.17-9.98-9.66-21.42,2.35-29.74,10.11-7,22.65-1.95,31.32,11.69,16.04,25.24,31.77,50.68,49.5,79.03Z" style="fill:#1d1a1a;"/><path d="M5946.06,1283.5c0,29.15.1,58.29-.04,87.44-.07,14.14-8.34,25.24-20.12,23.98-6.65-.71-14.77-5.95-18.4-11.6-3.72-5.81-3.7-14.59-3.73-22.08-.26-52.55-.18-105.11-.02-157.66.02-5.65.93-11.36,1.93-16.94,2.03-11.36,9.55-16.99,20.6-15.96,12.15,1.13,19.9,7.56,19.83,21.1-.16,30.58-.05,61.16-.05,91.74Z" style="fill:#1d1a1a;"/><path d="M4014.44,320.69c31.6-4.81,54,26.39,53.41,50.13-.84,34.43-22.06,54.46-52.6,55.11-30.88.67-52.23-22.03-53.43-54.27-.85-22.63,22.22-55.99,52.62-50.98Z" style="fill:#1d1a1a;"/></g></svg>