<?xml version="1.0" encoding="UTF-8"?><svg id="Layer_2" xmlns="http://www.w3.org/2000/svg" viewBox="0 0 1728.21 1699.79"><g id="FULL"><path d="M1019.82,1.21c13.05,1.98,48.63,8.97,69.93,23.38,9.22,6.24,19.71,11.25,27.06,19.39,11.55,12.79,25.7,15.13,40.36,11.2,29.97-8.05,60.35-10.44,90.93-8.43,92.52,6.08,183.47,54.19,216.87,160.12,6.92,21.96,8.02,44.91,10.25,67.48,1.43,14.46,7.91,24.04,18.5,31.54,51.6,36.53,80.14,86.85,90.17,148.51,2.26,13.87,9.11,23.93,22.6,29.78,67.82,29.42,100.83,85.26,115.33,154.38,2.91,13.87,3.1,28.42,3.49,42.68.73,26.13,1.47,52.26,2.51,78.39,1.53,38.64-1.37,77.82-13.05,114.37-8.58,26.86-3.61,49.94,2.28,75.07,13.38,57.12,17.18,114.06-10.3,168.9-22.07,44.03-53.53,78.65-99.68,98.02-14.02,5.88-21.28,14.77-23.49,30.22-8.66,60.4-36.87,109.93-87.09,145.23-20.14,14.16-22.03,34.18-23.4,54.92-2.94,44.61-17.75,84.59-45.83,119.28-34.33,42.41-79.18,68.47-131.65,81.96-21.22,5.46-42.95,6.79-64.75,6.54-26.08-.3-52.14.32-77.37-9.14-11.64-4.37-22.95-.3-32.5,8.25-35.57,31.84-76.93,45.13-125.02,44.61-45.63-.49-84.05-15.8-118.48-43.7-10.89-8.83-20.06-6.94-29.61,1.03-20.49,17.1-43.55,29.25-69.35,36.12-57.21,15.23-111.67,12.11-158.89-27.56-20.57-17.29-40.98-22.38-67.14-14.6-23.94,7.11-49.45,4.94-74.46,4.73-52.86-.46-100.5-18.06-140.62-50.37-43.71-35.2-74.52-80.25-81.44-138.69-1.24-10.48-3.54-20.77-2.41-31.3,2.7-25.04-15.64-36.87-31.82-48.95-31.67-23.62-52.99-54.35-66.73-90.77-6.67-17.68-10.04-36.22-12.9-54.86-1.85-12.03-11.64-18.03-21.15-21.72-21.78-8.45-41.24-21.16-56.82-37.3-28.2-29.22-49.26-63.46-57.47-104.33-4.97-24.75-8.18-49.99-5.98-74.79,1.85-20.85,3.22-42.51,11.33-62.43,9.07-22.28,8.5-43.57,1.16-66.86-11.94-37.9-11.42-77.77-9.67-117.1,1.31-29.56-5.25-58.64-2.9-88.16,3.35-42.1,12.56-82.29,37.61-117.25,20.42-28.51,47.02-50.22,79.36-63.46,17.89-7.33,25.53-20.52,27.33-37.32,5.93-55.55,35.79-97.57,75.68-133.12,14.1-12.56,31.7-21.29,32.52-42.75.46-12.11,1.65-23.99,2.99-36.02,4.6-41.48,22.62-76.3,49.22-107.45,35.97-42.11,81.61-67.75,135.75-77.86,40.07-7.49,80.65-6.47,120.03,2.85,21.36,5.05,38.3.1,52.65-12.72,22.76-20.34,49.37-30.64,78.27-37.08,2.71-.6,12.42-2.24,16.48-2.5,8.93-.67,15.75-1.28,27.95.28,6.72.62,8.25,1.3,11.49,1.68,36.66,4.27,68.1,16.07,97.08,39.46,16.19,13.07,20.54,13.44,37.32.6,21.71-16.6,45.6-28.48,71.88-35.92,10.52-2.98,20.84-4.97,31.83-6.62,11.46-1.65,22.03-1.16,33.76.17ZM1338.01,361.28l.05.18c28.12-10.92,44.1-32.53,51.47-60.66,13.47-51.41-12.85-112.57-59.89-144.15-46.46-31.19-97.72-33.54-149.15-21.8-39.03,8.91-74.91,27.54-99.83,61.58l.08.09c-2.62.39-4.13,1.94-4.7,4.47-10.82,10.47-17.85,23.58-25.73,36.17-39.99,63.95-32.25,153.05,30.16,215.49,10.8,10.81,20.94,7.57,31.5-.02,10.31-7.41,11.27-15.17,3.89-25.99-12.38-18.17-12.19-38.98-1.24-53.08,10.47-13.48,28.18-18.17,48.96-11.43,26.48,8.59,53.61,13.7,81.17,16.17,30.93,2.77,61.46,1.16,89.55-14.48,1.23-.85,2.46-1.69,3.69-2.54ZM407.26,370.83c26.58,10.03,54.07,10.14,81.68,6.82,26.94-3.23,53.41-8.52,79.53-16.47,28.31-8.61,52.57,8.65,53.43,35.96.35,11.09-3.24,21.16-9.69,30.16-7.85,10.96-3.35,19.32,5.86,26.22,10.81,8.11,22.71,6.57,32.78-4.69,14.37-16.08,28.18-32.98,36.46-52.95,19.58-47.21,21.89-94.94.33-142.48-34.46-83.4-124.92-136.6-213.77-125.74-71.04,8.69-121.84,52.67-136.48,118.17-13.21,59.08,16,111.32,69.89,124.98ZM1036.25,117.66c14.32-12.62,14.53-19.36.49-25.97-45.4-21.39-124.79,5.63-130.73,72.99-.82,9.26-2.67,18.12-5.56,26.85-10.63,15.1-24.12,24.92-43.6,21.29-18.62-3.47-26.03-17.49-29.99-34.21-.23-.96-.88-1.82-1.33-2.72-4.79-71.54-67.69-103.85-126.23-89.26-20.57,5.13-23.59,16.22-8.97,30.7,4.08,4.55,8.15,9.11,12.24,13.65,40.09,44.51,72.86,92.88,78.67,154.65,5.63,59.81,1,117.81-32.72,170.26-11.13,17.31-23.58,33.52-36.89,49.17-13.21,15.53-13.58,20.54-1.82,36.3,32.67,43.77,54.54,92.43,67.28,145.39,5.1,21.21,10.42,23.97,31.54,16.89,37.46-12.55,75.08-15.21,113.3-3.31,22.47,7,27.06,4.6,32.74-17.93,11.39-45.13,29.03-87.42,55.46-125.86q22.28-32.4-2.52-62.1c-64.52-77.5-78.65-165.24-48.37-259.59,14.54-45.3,42.91-83.64,77-117.2ZM591.85,1549.67c66.72-37.55,107.77-92.08,110.21-170.64.89-28.82-5.08-56.58-19.96-82.5-14.22-24.78-31.38-46.74-51.63-66.61-7.32-7.18-14.94-14.21-21.2-22.27-13.49-17.35-12-40.35,2.65-54.57,15.13-14.68,39-15.13,55.81-.48,19.35,16.87,37.14,35.27,54.31,54.43,78.07,87.1,82.22,231.61,13.75,322.15-14.58,19.28-29.44,38.07-47.23,54.6-12.72,11.83-10.58,22.22,5.54,27.46,63.3,20.59,132.53-21.25,129.55-88.6-.82-18.4-1.91-36.96,1.25-55.29,3.69-21.4,20.09-35.28,40.38-34.77,19.65.5,34.99,14.71,38.13,35.51,2.46,16.33,2.34,32.87,1.05,49.16-5.47,68.84,58.28,111.58,124.45,96.12,7.51-1.75,15.43-4.61,17.73-13.08,2.38-8.77-4.1-14.28-9.73-19.5-13.6-12.6-25.49-26.61-36.82-41.29-56.69-73.43-68.69-155.6-43.94-242.81,16.77-59.11,57.45-103.4,102.86-142.98,18.57-16.18,43.7-15.39,58.38.14,15.58,16.47,14.59,40.36-2.86,59.44-14.54,15.91-29.85,31.12-44.13,47.26-74.46,84.16-50.59,204.2,38.78,270.46,57.27,43.79,121.03,51.28,187.62,28.86,46.35-15.6,77.72-48.87,91.11-96.96,16.77-60.24-6.41-109.77-59.84-128.85-29.3-14.47-60.45-14.09-91.79-10.92-26.07,2.64-51.32,9.41-76.67,15.85-32.3,8.2-56.14-10.73-53.48-41.82,1.47-17.16,11.82-27.85,26.98-34.36,26.64-11.44,54.91-16.06,83.41-19.95,71.07-9.72,138-.59,197.77,42.26,8.21,8.38,16.52,16.66,24.61,25.16,8.32,8.74,16.47,9.04,25.07.4,16.55-16.62,28.56-35.96,35.35-58.44,4-13.26-.72-21.86-14.03-25.79-11.25-3.32-22.47-6.7-33.71-10.06-19.35-10.77-37.31-23.37-52.16-40-7.51-8.42-16.84-10.36-27.85-9.47-27.67,2.23-55.26,1.81-82.95-1.85-184.72-24.44-323.65-166.88-342.41-351.89-1.41-13.92-7.45-23.74-19.56-30.96-36.96-22.02-90.67-19.95-125.5,5.35-11.11,8.07-16.73,19.16-18.17,32.53-.66,6.12-.46,12.35-1.43,18.41-33.16,207.53-223.63,345.41-423.58,327.85-10.53-.93-19.39.92-26.84,8.16-14.41,14-30.85,25.23-47.77,35.85-13.35,5.17-26.52,10.89-40.1,15.36-13.13,4.33-18.27,12.7-15.28,25.78,5.53,24.24,18.28,44.39,36.55,60.99,8.05,7.31,16.59,7.16,24.57-.74,8.39-8.3,16.82-16.55,25.23-24.83,37.09-28.86,79.21-44.13,126.07-46.85,54.45-3.16,107.18,4.79,158.17,24.09,10.75,4.07,17.59,12,20.94,22.99,4.86,15.93,2.81,30.96-8.81,42.92-12.28,12.63-28.26,13.89-44.37,8.95-25.06-7.68-50.51-13.7-76.53-16.05-38.6-3.48-76.85-3.05-110.79,20.05-18.17,9.36-30.26,24.12-37.14,43.05-14,38.52-9.95,75.48,11,110.53,45.63,76.36,157.95,101.24,238.95,53.05ZM1643.25,775.6c1.21-177.86-150.31-307.58-303.57-306.03-173.84,1.76-310.38,136.76-310.44,311.04-.05,152.37,131.22,302.55,309.48,300.53,167.57-1.9,304.51-137.75,304.53-305.55ZM89.32,775.84c-7.03,153.74,126.82,307.43,310,305.76,171.62-1.56,302.14-152.11,302.13-306.52-.01-160.57-139.39-311.94-315.55-307.51-151.3,3.81-305.17,139.47-296.58,308.26ZM196.33,1149.36c2.29-.15,7.5.01,12.5-.95,6.39-1.23,14.18-1.71,15.71-9.92,1.5-8.08-5.01-11.55-10.83-15.01-10.57-6.29-21.28-12.36-31.64-18.98-26.05-16.63-49.79-36.12-71.43-58.22-4.11-4.2-8.97-9.92-15.83-6.38-6.51,3.35-5.47,10.4-5.29,16.54.07,2.55.36,5.12.87,7.62,9.98,49.3,52.7,84.61,105.95,85.29ZM1533.27,1148.8c51.94-.51,94.89-37.7,104-89.75.95-5.42,1.52-10.56-3.2-13.91-5.2-3.69-9.79-.11-13.78,3.17-3.55,2.92-6.86,6.17-10.07,9.49-24.84,25.67-53.71,45.8-84.96,62.87-7.93,4.33-22.12,6.23-18.79,18.34,3.18,11.57,17.25,7.64,26.79,9.8Z" style="fill:#1d1a1a;"/><path d="M1109.2,1531.01c-89.37-66.25-113.24-186.3-38.78-270.46,14.28-16.14,29.59-31.35,44.13-47.26,17.44-19.08,18.43-42.96,2.86-59.44-14.69-15.53-39.81-16.32-58.38-.14-45.41,39.58-86.09,83.87-102.86,142.98-24.75,87.21-12.75,169.39,43.94,242.81,11.33,14.68,23.22,28.69,36.82,41.29,5.63,5.22,12.11,10.73,9.73,19.5-2.3,8.47-10.23,11.33-17.73,13.08-66.17,15.45-129.92-27.29-124.45-96.12,1.29-16.29,1.41-32.83-1.05-49.16-3.14-20.8-18.48-35.01-38.13-35.51-20.29-.51-36.69,13.36-40.38,34.77-3.16,18.32-2.06,36.89-1.25,55.29,2.99,67.36-66.25,109.19-129.55,88.6-16.12-5.24-18.26-15.63-5.54-27.46,17.78-16.54,32.65-35.33,47.23-54.6,68.46-90.54,64.32-235.05-13.75-322.15-17.17-19.16-34.96-37.56-54.31-54.43-16.81-14.66-40.68-14.21-55.81.48-14.66,14.23-16.14,37.22-2.65,54.57,6.26,8.05,13.89,15.09,21.2,22.27,20.25,19.87,37.4,41.84,51.63,66.61,14.88,25.93,20.86,53.68,19.96,82.5-2.44,78.56-43.49,133.1-110.21,170.65-.11-8.21-.3-16.42-.28-24.62.01-5.98-.88-9.55-8.75-8.26-23.43,3.84-46.98,3.06-70.25-1.34-42.86-8.12-81.64-25.09-110.38-58.88-28.15-33.09-35.65-71.57-23.15-113.53,33.94-23.11,72.2-23.54,110.79-20.05,26.03,2.35,51.47,8.37,76.53,16.05,16.11,4.94,32.09,3.68,44.37-8.95,11.63-11.96,13.67-26.99,8.81-42.92-3.35-10.99-10.19-18.92-20.94-22.99-50.99-19.3-103.72-27.25-158.17-24.09-46.86,2.72-88.97,17.99-126.07,46.85-13.36-24.3-25.33-49.16-30.97-76.58,16.93-10.62,33.36-21.85,47.77-35.85,7.45-7.24,16.3-9.08,26.84-8.16,199.95,17.56,390.42-120.32,423.58-327.85.97-6.06.77-12.29,1.43-18.41,1.44-13.38,7.05-24.46,18.17-32.53,34.83-25.3,88.54-27.37,125.5-5.35,12.11,7.21,18.14,17.04,19.56,30.96,18.76,185.01,157.69,327.44,342.41,351.89,27.69,3.66,55.27,4.08,82.95,1.85,11.01-.89,20.34,1.06,27.85,9.47,14.85,16.64,32.81,29.23,52.16,40-1.27,5.44-2.08,11.04-3.89,16.3-6.92,20.11-13.93,40.27-33.41,52.43-59.77-42.85-126.7-51.99-197.77-42.26-28.5,3.9-56.77,8.51-83.41,19.95-15.16,6.51-25.52,17.2-26.98,34.36-2.65,31.08,21.18,50.02,53.48,41.82,25.35-6.44,50.6-13.21,76.67-15.85,31.34-3.17,62.49-3.55,91.79,10.92-3.42,4.29-8.53,2.72-12.88,3.54-10.2,1.92-16,3.9-9.89,17.15,6.76,14.68,9.42,31.26,6.44,47.85-6.97,38.8-27.9,68.45-60.46,89.99-37.3,24.68-78.95,34.63-123.24,35.37-6.3.11-13.39-2.9-18.84,3.06Z" style="fill:#e7879c;"/><path d="M1643.25,775.6c-.02,167.79-136.96,303.64-304.53,305.55-178.26,2.03-309.53-148.16-309.48-300.53.06-174.28,136.6-309.28,310.44-311.04,153.26-1.55,304.78,128.17,303.57,306.03ZM1352.72,684.68c.46-25.86-2.61-30.55-21.07-27.75-50.06,7.58-100.86,34.75-112.24,106.49-11.01,69.33,35,131.58,106.09,142.01,57.12,8.38,127.09-27.72,138.75-103.19,4.17-27.01,3.16-30.11-23.6-27.79-46.24,4.02-94.27-38.9-87.92-89.77Z" style="fill:#fdfdfd;"/><path d="M89.32,775.84c-8.6-168.79,145.28-304.46,296.58-308.26,176.16-4.43,315.54,146.95,315.55,307.51.01,154.4-130.5,304.95-302.13,306.52-183.18,1.67-317.03-152.03-310-305.76ZM491.01,774.36c-8.1-1.35-17.28-.29-26.34-3.39-39.82-13.65-64.21-52.04-59.38-94.47,1.99-17.46.07-19.71-17.44-19.99-3.57-.06-7.19.1-10.72.63-79.35,11.9-124.32,90.09-102.69,161.38,16.31,53.74,70.78,93.36,126.53,90.22,57.86-3.27,107.07-45.77,117.29-101.28,5.64-30.67,4.14-32.55-27.25-33.09Z" style="fill:#fdfdfd;"/><path d="M825.54,175.89c.45.9,1.11,1.76,1.33,2.72,3.95,16.72,11.37,30.74,29.99,34.21,19.48,3.63,32.97-6.19,43.6-21.29,13.38-3.35,22.54-10.51,25.65-24.94,2.78-12.9,12.76-20.38,23.67-26.54,26.83-15.15,56.54-19.19,86.47-22.4-34.09,33.55-62.46,71.89-77,117.2-30.28,94.35-16.15,182.09,48.37,259.59q24.83,29.82,2.52,62.1c-26.43,38.43-44.07,80.73-55.46,125.86-5.68,22.53-10.28,24.92-32.74,17.93-38.22-11.9-75.85-9.24-113.3,3.31-21.12,7.07-26.44,4.32-31.54-16.89-12.74-52.96-34.61-101.62-67.28-145.39-11.76-15.76-11.39-20.77,1.82-36.3,13.31-15.65,25.76-31.85,36.89-49.17,33.72-52.45,38.35-110.45,32.72-170.26-5.81-61.76-38.58-110.14-78.67-154.65-4.09-4.54-8.16-9.1-12.24-13.65,51.64,4.37,101.06,13.87,135.21,58.56Z" style="fill:#e7879c;"/><path d="M1334.32,363.81c-28.09,15.64-58.62,17.25-89.55,14.48-27.56-2.47-54.7-7.58-81.17-16.17-20.78-6.74-38.49-2.05-48.96,11.43-10.95,14.1-11.14,34.91,1.24,53.08,7.38,10.83,6.42,18.58-3.89,25.99-10.56,7.59-20.7,10.83-31.5.02-62.41-62.44-70.16-151.54-30.16-215.49,7.87-12.59,14.91-25.7,25.73-36.17,2.55-.46,4.97-1.05,4.7-4.47,0,0-.08-.09-.07-.08,2,0,4.38.7,5.92-.13,36.44-19.85,75.76-21.65,116.15-20.8,74.85,1.57,140.28,67.25,141.14,142.28.17,15.13-6.09,28.86-5.82,43.68,0,0-.05-.18-.06-.18-1.23.85-2.46,1.69-3.69,2.54Z" style="fill:#e7879c;"/><path d="M687.62,253.41c21.57,47.54,19.25,95.27-.33,142.48-8.28,19.96-22.09,36.86-36.46,52.95-10.06,11.26-21.97,12.8-32.78,4.69-9.2-6.9-13.71-15.27-5.86-26.22,6.45-9,10.04-19.06,9.69-30.16-.86-27.31-25.12-44.58-53.43-35.96-26.12,7.95-52.59,13.23-79.53,16.47-27.61,3.31-55.11,3.21-81.68-6.82.61-25.75,4.7-50.88,16.15-74.11,22.27-45.19,62.06-66.6,108.22-80.95,48.41-15.05,91.37-7.81,130.9,23.48,7.5,5.94,14.98,12.57,25.1,14.17Z" style="fill:#e7879c;"/><path d="M687.62,253.41c-10.12-1.61-17.6-8.24-25.1-14.17-39.53-31.29-82.49-38.53-130.9-23.48-46.16,14.35-85.95,35.76-108.22,80.95-11.45,23.23-15.54,48.37-16.15,74.11-53.89-13.66-83.1-65.9-69.88-124.98,14.65-65.5,65.45-109.48,136.48-118.17,88.86-10.87,179.31,42.34,213.77,125.74Z" style="fill:#f2c3cc;"/><path d="M1109.2,1531.01c5.45-5.96,12.55-2.95,18.84-3.06,44.3-.74,85.94-10.69,123.24-35.37,32.56-21.54,53.49-51.19,60.46-89.99,2.98-16.58.32-33.17-6.44-47.85-6.1-13.25-.31-15.22,9.89-17.15,4.34-.82,9.46.75,12.88-3.54,53.42,19.08,76.61,68.61,59.84,128.85-13.39,48.09-44.76,81.36-91.11,96.96-66.59,22.41-130.35,14.93-187.62-28.86Z" style="fill:#d85162;"/><path d="M1338.06,361.45c-.27-14.82,5.99-28.55,5.82-43.68-.86-75.03-66.3-140.71-141.14-142.28-40.38-.84-79.71.96-116.15,20.8-1.54.84-3.92.13-5.92.13,24.91-34.05,60.79-52.68,99.82-61.59,51.43-11.74,102.69-9.39,149.15,21.8,47.04,31.58,73.36,92.74,59.89,144.15-7.37,28.13-23.35,49.74-51.47,60.66Z" style="fill:#d85162;"/><path d="M379.04,1343.04c-12.5,41.96-5,80.43,23.15,113.53,28.74,33.79,67.52,50.76,110.38,58.88,23.27,4.41,46.82,5.18,70.25,1.34,7.87-1.29,8.76,2.28,8.75,8.26-.02,8.21.18,16.42.28,24.62-81,48.18-193.32,23.3-238.95-53.05-20.95-35.06-25-72.01-11-110.53,6.88-18.92,18.97-33.69,37.14-43.05Z" style="fill:#f2c3cc;"/><path d="M196.33,1149.36c-53.25-.68-95.98-35.99-105.95-85.29-.51-2.5-.79-5.08-.87-7.62-.17-6.14-1.21-13.19,5.29-16.54,6.87-3.53,11.72,2.18,15.83,6.38,21.64,22.1,45.37,41.59,71.43,58.22,10.36,6.61,21.07,12.69,31.64,18.98,5.81,3.46,12.33,6.93,10.83,15.01-1.52,8.21-9.31,8.69-15.71,9.92-5,.96-10.21.8-12.5.95Z" style="fill:#eec0c9;"/><path d="M283.39,1210.36c5.64,27.42,17.61,52.28,30.97,76.58-8.41,8.27-16.84,16.53-25.23,24.82-7.98,7.89-16.52,8.04-24.57.74-18.28-16.6-31.02-36.76-36.55-60.99-2.99-13.08,2.14-21.46,15.28-25.78,13.58-4.47,26.75-10.19,40.1-15.36Z" style="fill:#f2c3cc;"/><path d="M1533.27,1148.8c-9.54-2.16-23.62,1.77-26.79-9.8-3.32-12.11,10.86-14.01,18.79-18.34,31.25-17.06,60.13-37.2,84.96-62.87,3.2-3.31,6.51-6.56,10.07-9.49,3.99-3.28,8.58-6.85,13.78-3.17,4.72,3.35,4.15,8.48,3.2,13.91-9.11,52.04-52.07,89.24-104,89.75Z" style="fill:#d85162;"/><path d="M1036.25,117.66c-29.93,3.2-59.64,7.25-86.47,22.4-10.91,6.16-20.89,13.64-23.67,26.54-3.11,14.43-12.27,21.59-25.65,24.94,2.89-8.74,4.74-17.6,5.56-26.85,5.93-67.36,85.33-94.37,130.73-72.99,14.03,6.61,13.83,13.35-.49,25.97Z" style="fill:#d85162;"/><path d="M825.54,175.89c-34.15-44.7-83.57-54.2-135.21-58.56-14.62-14.48-11.59-25.58,8.97-30.7,58.55-14.59,121.44,17.73,126.23,89.26Z" style="fill:#eec0c9;"/><path d="M1414.31,1285.12c19.48-12.16,26.48-32.32,33.41-52.43,1.81-5.26,2.62-10.86,3.89-16.3,11.23,3.36,22.46,6.74,33.71,10.06,13.31,3.93,18.03,12.53,14.03,25.79-6.79,22.49-18.81,41.82-35.35,58.44-8.6,8.64-16.75,8.34-25.07-.4-8.09-8.5-16.39-16.78-24.61-25.16Z" style="fill:#d85162;"/><path d="M1080.75,196.52c.27,3.42-2.15,4.01-4.7,4.47.57-2.53,2.08-4.08,4.7-4.47Z" style="fill:#d85162;"/><path d="M1334.32,363.81c1.23-.85,2.46-1.69,3.69-2.54-1.23.85-2.46,1.69-3.69,2.54Z" style="fill:#d85162;"/><path d="M1352.72,684.68c-6.35,50.87,41.68,93.78,87.92,89.77,26.75-2.32,27.77.78,23.6,27.79-11.65,75.47-81.63,111.57-138.75,103.19-71.09-10.43-117.1-72.68-106.09-142.01,11.39-71.74,62.19-98.91,112.24-106.49,18.46-2.8,21.54,1.89,21.07,27.75Z" style="fill:#1d1b1b;"/><path d="M491.01,774.36c31.39.53,32.89,2.42,27.25,33.09-10.22,55.52-59.43,98.02-117.29,101.28-55.75,3.15-110.22-36.48-126.53-90.22-21.63-71.29,23.34-149.47,102.69-161.38,3.53-.53,7.15-.68,10.72-.63,17.51.28,19.43,2.53,17.44,19.99-4.83,42.43,19.56,80.82,59.38,94.47,9.05,3.1,18.24,2.04,26.34,3.39Z" style="fill:#1d1b1b;"/></g></svg>